<?xml version="1.0" encoding="utf-8"?>
<!-- Generator: Adobe Illustrator 18.0.0, SVG Export Plug-In . SVG Version: 6.00 Build 0)  -->
<!DOCTYPE svg PUBLIC "-//W3C//DTD SVG 1.1//EN" "http://www.w3.org/Graphics/SVG/1.1/DTD/svg11.dtd">
<svg version="1.1" id="Layer_1" xmlns="http://www.w3.org/2000/svg" xmlns:xlink="http://www.w3.org/1999/xlink" x="0px" y="0px"
	 viewBox="0 0 100 100" enable-background="new 0 0 100 100" xml:space="preserve">
<circle fill="#3498DB" stroke="#FFFFFF" stroke-miterlimit="10" cx="49.7" cy="50.2" r="45.2"/>
<g>
	<path fill="#FCFCFC" d="M35,43.3c-0.6-0.5-1.5-0.7-2.7-0.7c-1.5,0-2.8,0.7-3.8,2.1S27,48.1,27,50.6v11.3h-3.6V39.7H27v4.6h0.1
		c0.5-1.6,1.3-2.8,2.3-3.7s2.2-1.3,3.5-1.3c0.9,0,1.6,0.1,2.1,0.3V43.3z"/>
	<path fill="#FCFCFC" d="M54.8,61.9h-3.6v-3.5h-0.1c-1.5,2.7-3.8,4-6.8,4c-2.2,0-3.9-0.6-5.2-1.8c-1.3-1.2-1.9-2.7-1.9-4.7
		c0-4.2,2.4-6.6,7.3-7.2l6.7-0.9c0-3.8-1.5-5.7-4.6-5.7c-2.7,0-5.1,0.9-7.2,2.7v-3.6c2.2-1.4,4.7-2.1,7.5-2.1c5.2,0,7.8,2.8,7.8,8.3
		V61.9z M51.2,50.6l-5.4,0.7c-1.6,0.2-2.9,0.6-3.7,1.2s-1.3,1.6-1.3,3.1c0,1.1,0.4,2,1.2,2.7s1.8,1,3.1,1c1.8,0,3.2-0.6,4.4-1.9
		c1.1-1.2,1.7-2.8,1.7-4.7V50.6z"/>
	<path fill="#FCFCFC" d="M65,61c0,3.6-0.7,6.5-2.2,8.4s-3.6,3-6.3,3c-1,0-2-0.2-3-0.7v-3.3c1.1,0.7,2.1,1,3,1c3.2,0,4.9-2.6,4.9-7.8
		V39.7H65V61z M63.3,34c-0.6,0-1.2-0.2-1.6-0.7c-0.4-0.4-0.7-1-0.7-1.6c0-0.7,0.2-1.2,0.7-1.7c0.4-0.4,1-0.7,1.6-0.7
		c0.7,0,1.2,0.2,1.7,0.7c0.5,0.4,0.7,1,0.7,1.7c0,0.6-0.2,1.2-0.7,1.6C64.5,33.8,64,34,63.3,34z"/>
	<path fill="#FCFCFC" d="M74.1,34c-0.6,0-1.2-0.2-1.6-0.7c-0.4-0.4-0.7-1-0.7-1.6c0-0.7,0.2-1.2,0.7-1.7c0.4-0.4,1-0.7,1.6-0.7
		c0.7,0,1.2,0.2,1.7,0.7c0.5,0.4,0.7,1,0.7,1.7c0,0.6-0.2,1.2-0.7,1.6C75.3,33.8,74.7,34,74.1,34z M75.8,61.9h-3.6V39.7h3.6V61.9z"
		/>
</g>
</svg>
